<mxfile modified="2019-10-29T12:13:13.803Z" host="www.draw.io" agent="Mozilla/5.0 (Windows NT 10.0; Win64; x64) AppleWebKit/537.36 (KHTML, like Gecko) Chrome/77.0.3865.120 Safari/537.36" etag="5uCg3-vYyo73qYIowkBT" version="12.1.8" type="github" pages="1">
  <diagram name="Page-1" id="97a40813-6b03-0c74-37c1-0168de264b11">
    <mxGraphModel dx="583" dy="480" grid="1" gridSize="10" guides="1" tooltips="1" connect="1" arrows="1" fold="1" page="1" pageScale="1" pageWidth="500" pageHeight="300" background="#ffffff" math="0" shadow="0">
      <root>
        <mxCell id="0"/>
        <mxCell id="1" parent="0"/>
        <mxCell id="U2Ma9nkFuC7S6LuOiPo0-1" value="" style="shape=image;verticalLabelPosition=bottom;labelBackgroundColor=#ffffff;verticalAlign=top;aspect=fixed;imageAspect=0;image=data:image/png,iVBORw0KGgoAAAANSUhEUgAAAYQAAADvCAYAAADy+aP+AAAgAElEQVR4Ae2dB3gc1bXH/9uLtFpp1awuWZa7XLHBmOLYdExNSAA/SAg1wZRQAgQeqQQwSQgBnNCTl4DpSSim2EAAG2wccJd7U7N6XW0v7zsjrbSStWV2Ritpde6n/bS7M3PL786e/73nllH4/X4/ODABJsAEmMCYJ6CuqKgY8xAYABNgAkyACQAK7iHwbcAEmAATYAJEQMkYmAATYAJMgAkQARYEvg+YABNgAkxAIMCCwDcCE2ACTIAJCARYEPhGYAJMgAkwAYGAOp4caIZr8GuwtBUKBYJfg53D3zGBWAj4fD7h/qNrB5ttTfcdBfqvVHJbKRbGfE1oAtHcf8Nt+4ZcEOiH53a74XK5YLfbYbPZ4HA4hM/0feCHSSDUajU0Gg30ej0MBgOMRiN0Oh20Wq3wIw2Nmo8wgcEJeL1e4V6je66rq0u495xOp3BP0rFAUKlUwr1H9xvdf0lJScJ/uvfoGAcmEAsBj8cj3H90z9H9RzaQ3tP3gfuPbB/dY3SvBWwf3X/0mexhPBsnQzbtlAw9FbyjowOdnZ0CDBIAMYEEgoQhOTkZZrNZeB9POGLyyueOLAL0Y6N7j14BIQg0PqLJKf1IA8KQkpICerEwREOOzyECZOusViva29t7G8Fi7j+616hBTLaP7j16Hw/bNySCQAVvbGxES0uLoIjUVZIaSBgITFZWlqCcUuPj6xOXAIlAQ0ODcO9Rz1RqoJYa3X9079E9yIEJhCJAto7uv+bm5pgawQPjJRGg+48axJmZmYLHZOA5cn6WXRCoa15dXS2oY6BLJFeGCQ4pZW5uLkwmk1zRcjwJQoC64dQQaWpqErrpcheLfpgZGRnCD5N6rxyYQDABsne1tbVCQ5jei+kRBMcz2HuyfdRrKCgoQFpa2mCnyPKdbIJAhSdlPHz4sOAfkyV3YSIpKipCeno6jy2EYTSWDlFPgBoira2tQ15s+kHm5+dzT3XISY+eBEgADh48KNjAocw1CUNOTo7QW6X3cgdZBIG6SW1tbYI60rhBPAL5eANg2LcbD+IjNw2650gM6B6MV0hNTRVEgQahOYxdAtQQpokylZWVwv94kCB7Rz3V7OxsYdBZzjQlS0ygZ3D06FFhEFnOzIWLi9IlPzG5COR2TYVLl4+NLAIkBlVVVXEVAyJA4kPpxqsBNLKoc24CBEgM6D6g//EKZO/ILUr2T47x2eB8SxYEGjOoqakRpvMFRxyP9+QzJij04ySB4DC2CFD9071HMzmGI1C6lD7lg8PYI0C2jxrC8RSDAGUSBWoM00vOIFkQqKtOYIYr0PQuEgWxU1qHK7+crnwEaBYbjVsNZ6D0KR8cxhYBMshkd6j+h6sxSnkgQZJz3EySINTX1w/7D5JuQ1Lourq6sXVHjvHS0toC6jbTjyLW4PO40N7QDpcn9mnRlD7lg/LDYewQoLVV1DofLjEIkKb7j1xWckyvpjhjFgTqFZAgjJRAlcM/ypFSG0ObD/oRBNa4xJaSH872Gqx95qdYcs4S/PSZtahpdyJWpyOtPqX8SBGn2MrBVw0HAarnkdQADUy3lmM8ISZBIFWkhRcjzXdK/tzhVuzhuEHHWpo0kBv7uIEfjpZKfPDS4/jdKxsFdBtf+R0ef+kDVLY4YhYFyg8PMI+NOzGw6GyklJZsHt1/1DCRGmISBLrxqcsk1fj6Omqw7euN2LqnClanG87WWhyub4M3xqYaLRXnXoLUW2JkX0/3HPltYzW+rs56rHllJZ56/XO0WLu3UnFbW/D5609h5StrUN8Z28pmys9w+pNHdq0lTu6oEUxjByMtBO4/qb2EmJZbks8+lh+kx9qETWv+hc921CIp04KaD9dgq80BvzoFGRYNnLT5k1eD4jnn4roblqE8SyuKOxkLGmCh/T84JC4BKesN2g5uwJpVn6Pe1t/wO9vr8fnra7Bg4fG4cEZWTPAoXzQ3nEPiEqCWuFz+ejkpkRBQg9hisUja3kL0wjRKmJZnix0/8LqsePsP1+OP/zwIl0oBv88Dfe5puPXeK2E5/Bae+tsXyDjxHBxnrsfat9fgiEcNvTEbC757K+743nwYVd1bE0eCSFtblJWVCTunRjqXj48+AjR2tXPnzpgz7vd64bDZ4KnZgOvv+T32VjUho2Aibn/wKZyQp4bRqIcqynttsExMmzZN2BRvsGP83egnQKuRxc/q8cNV9w2efvgxfGb+Lv74v+cgR6VEf4vmRdPedVi58hXoTr4eN58/AwZN/zMi0aPtVMaPHy9pWx/RPQTqMombZuqFvaMDTQc/xJqP3Fh69zO47rwytK59FB9m3IEL5qqB8mS4Ms/BcbMnIcXoR5nZjQffOgyLwYevn7sNP6p7FI/fOh8pUTi4aMCH8se9hEi3z+g8Tm4ZKUGhUsFA+2CZjL2Gn74zmkyQY3ssyh/tksoh8QhQz0Cc7aMHb3jRWfUNXlz5GF77cje6PL/Anf5O3Hfz+ZiYnoTujdW9qN+zDk/9/hG89U0dFF9Uw+H+JZZfOAvp+uhFgWwzjSOQ7aOdHGIJUZjY/tGSwY26y+Szo3rLR/jbyj/g94+9hj1pKZg4uRgpah2K5p6IEmOPHml1yEhNhVqphEKhRP7Uk3DbQ3/Bc888jrsvno79b/8fdkY51ZvyF4s7q38p+dNIJSBujMgPR2sNNn+9Ew1d/V1Ekcrn6mrAzq83o6ZV3ECzuPxFygUfH0kESAzIvogJfmcnNn34Kl77dA+6etYv7lvzFzy68g3sONoBLzxo3LkWKx9ZIYgBxe331eKdP9yPlzaL34qF3PlSxnZjEoToZhf50XZkI/7+7LP4tM6I2WecgzPn5EOr6kkyZRKm5gbQmlCQnwadTgkoVMgomYOZeUYo1GmYNL0YPtdWtEbZMCSXFi9SC3BNvP9iZlK4Ouuw9pUn8fDv3sSORnHrBLrqd+DNBx/Gk6+sRZ2IgWYx+Uu82knsElFDU6wgQKVCcmoqzEEtfZ+rC9vW/B1PPvca/vPhq3hoxWN4d0v/KfwqcyYykkQ7cIQejBRBEJ0iGdzoBMGG2o2bcaBpMq759dU4ZXwKGmt2ozOwyl+XjdzefcH0sFj6biadOQOBQ0qVpu9AFO8IRnT5iyIyPmXEEYi2d+r3O/H5iw/jsVUb0eE9AS2dNAMtaJJClwM+X/d0Nr/PB0dXF4LXllk7W9By+BA2rHoMNhjw8PWLoYuiGx5t/kYcWM5QRAJkV8QaW4UmGbNOX4Zra5vx+Gvr0GDvXgTpsbVi63t/x+FPgdY2a7+01Wkzcf3/3o/zp4rf4p/uP7F5DE5ctCBQYtEl6IPH4YbKmIq89GRoVDqkWAqg6F/24LyEeC9uDmr0+QuRHH89oglE1ULzu/DN0zfgrme395Tlczx01ed4KETJmir34K7LTx38aFcr1j17F25QPIWnrpsLbQTXbFT5Gzwl/naEE6C6pQaxuKCA1lyMs6+/E4qudvz6X9vg7JlX73Va0TJgc2hN2nRc87P7cMVJRVCL9t9AcmM4hiTF4Qg+mwY6lBF+UMHnAz40NdYCygJoghp3/c/hT0ygPwFHxb9x7z929P9S4qeKf9yLf1cM355dErPPl8tAILqGcIiEdDk46ye/wn3nT4F5wPyi7iuUSMosx7KbbsMlJ5XEJAYUj9QGsegeQojiDvK1AqDppX5/70IzrcYAU7KYB5a3o3JzPYw5J6EofZAk+CsmMAgBfelC3HXFIjzx8qc40uEDFGbkl+YizRB0uzut2H+kGnanGxqdAflFE5Ac8FMC8NhbUbu/GrSPqjqlCN+6dDkWlvLsoUFw81fREtCnY87ppyL/n7vRPnBNvEINS95kzJxRjCRxXvJ+qcc6uygQSdAvJPBV+P+UIL0iq6UOpnwL/I71+HxLLSYvmQCN1iCupd9+BF9tb8O4U+ej0BA+X3x0bBCI6t7T52LR9+8ElDo88fKHqLJNxPnXXo1TClP7INVvxj0rnsah2lYkp4/Dd398L2YHrSlrO/wZnrvnL9iSWoAzLl2OG69YhKwgweiLqP87qT/I/rHxp5FEgJ5QFtX9N2im7ajZtBp/eOwN7MQgbie/C0f3rsU/XsyB5bqLMTUzedB+xKBRB30ZyGPQV6LexiQIlGhkX6kG+XMX4azyjXjhT7+BC7/Gj5cUQEyCndUHsNlhw3FzJyPathlVGD9BTdQ9MKpO1mg0UU17VuiycNIlN8ANP/7yTzeyi0owYUJQN9NYD722+25Ua/XILZmACXl9KJp9e5Cako/TL70e115yErJ00fk6KX8cEpMALfyKTRCcqP3ve/jdn/6KdXtDb3tBA81b3vsrVnjU+M3d30WBToy17GYu9f4TnSKJAYGJLAiAJqUU3779Xvh+dTd+//Ob4fH8HjeeOb53BlH428aFowd3ocs7A7MmR78VRSB/4ePmo6OVAD2yMtqZPBpzPs648meYcZ4DqWlBvYMoCp9asgR3rJoLfdo4JIkYv+JHakYBd5SeotVqhcamuIFlDxp3fYw/PvoMPt/T/2E2qtRiTM3pRMXeZgSWN3gdHdj59h9wo9OIZ397IcRuokL3n5RequhBZWp9i1IhXREuuf93uOvcVPznqXvw9FvfoNXhGehBO/YW8Tbj4NY6GCfNx+zMYw+H+oYEgSqOQ2ISoK1JRAVtEsZlp0OvFTN2Bai0eqRnixMDypfo/IkqDJ88nATI2Ir1Pnhtbfhs9Rv4T7AYKJRIHjcDV958Px5b+Tx+fn45LEHrFKiMtR8+iD+urhRdXIPBEF9BoN6B6FaQLg/n3fQL/ODkHGx4dSXe2nQYzkHcaMGl97U0YltdM5InFyIj+ECE91RhvHVABEij+LBJ4v4SLlsDKjatx/pvKmC1d69edtmtqPhmPdZvqkDDgE3vxKKSmj+x6fH58SNAdk9UY5geOKM2YPzEmZiUbep9+ExS1jR8+4fLcdmZM5BiysM5dzyAWy9egLzkQPtcg/TJi3HKRDGWD6DGMDVI6H+sQfSVZHBJhcQmqk4uxNmXXoV5uXas37QTNkf4JeD2zjY0dHUiN2+cqLKRGIgWLFEp8MnDSSApKUn0jzI4v531O/Dqkw/hgSdfxtHmTuFQZ/NRvPzkA1jx5KvYWd/9XfA10b4nY0H545CYBMj2id0jTaFNQvniS/Hj7y/FeEsS1KnT8b0f3Y5l586BJTBJQZeL066+Hdd/ZxEKTHpkzzwLt/70FpwxQVxvmOyeVNsnegyB/FOkQuSWob09og8KGDJLcMJx5diw6nnctPlNaMLsKum1t6PROx43TQkaCIyQGOUtJSVFUpcpQhJ8eJgJ0I+S6pgeUhJLMGdNxaJFs7H9/96Hp+fRmT6PB10uDRYuPAmTM82xRCtcQ/mi/HFIXAKpqanC09Iiz7LsY6BOysS8pVfjgSlL0KrMwOSJ+UgeMPdAay7EkivvQOkpdVCk5qG0wNLbo+iLKfw7aoxIdZeLFgTKEiVMSiROEIQJ3Tj+vKvwI7cK/9xwAGE7CRnjcd63l2FJ8MyQ8DyEo7QfOIfEJUCin5aWFrMgqJPG4dTv3AC7tQN/eGU9Wu1+qAxpOOniG3DDZUuQkxzdbKLBCFO+pAzoDRYnfzeyCFBjmERB7BbYamMqSstnhSmMArqULEyK8Vkc1DulBgm59KUE0c9DCCRGQI4cORLVbKPANUP9Py8vD+PGiXMxDXWeOH75CdAso8rKSgmP0QTQWYW3nluBJ9/di6nn3ojbrj4fBeK3juktnNlsRmFhoeQWWm+E/GbEEqAdRffu3TuibB/df0VFRZLcqQQ8ZjkhNaKegtT96eWqdRo7yMgQNwgjV9ocT3wJUGuIWmm01XTMGxmaCnD+1XcjbdpBjD/hZORJEANqlVF+xA44xpcapyYXAeolpKenj5hHaZKbkvIjx/0Xcw+B4NJWv/v37496XrhcFfLCCy8c4zKgge5YZnhceumlWLBggVxZ43jiRIC2OK+pqUFLS0sUq+aHLlPkIiI3JfVO5fhBDl1OOeZIBG699dao7yXaCpsepxkqkF3Jz88PdVjW76khXFBQIHqiz2CZiLmHQJGREc7JyRFcR4NFPlTfrV69GocOHZIl+unTp7MgyEIyvpGQ8c3MzERnZ2fcGyTBJQ3kg8UgmMrofP/EE0/I5gZasmRJXASBGsHUGBE76zNUDUkSBIqUWkfUU2hoCL0kO1TiUr5XqdX4wQ/uFQa3Y5ndUVt7BC88H2pDZCk542vjRYBcltQKo+fcDleg9CkfHBKDQHZ2Pq659t6oC0PjCfRw+8Dq5f37t+HT//wz6uulnEhucnqGstSB5OA8SBYEUiYayKWtLOLZfVdAAYPBCBpMiaV1JifEYKD8Pr4EaGYPDaZVV1fL1rqLpgTktyUxoPQ5JA4BcgFqROy1n5KiEVrnXV3dj65UKYd+2jHlkcSAJjHIbcckCwLdCmSQyXVEIZ6iEKsYJM7tyyUhAoHJBHV1dXF5njZNuaZGUCBdroWxS4CMc3KySXgWPPUWhjp0p5cs3H9D0TOVRRAIAv1IcnNzhWl3tGgo2g3IxAIkRSQoEJR8wOoOsZHx+QlDgFyX1Gon1yXNPhKzcChaCHTf0Y8wKytL6JlGex2fl9gEAkaa7r9YvBVi6FCPNDs7e8j2zJJNEKhQtEqOWk7k0z969KjsU1JpEJvil7oaT0wF8LmjgwC5LmnqJ00JbGxsRH19/4eWy1EKEgIayKb7T2iUyBEpx5EwBMg+0WsoAsVL995QT2+WVRAIBP0wab8PGuxoa2sThIGmaEkJ9OMjlxR10UmB5RpRl5InvnbkEaD7hHqqNOuC5mXX1tYK96DUnNKPkHq/5LdlIZBKM7GvV/RsLEf2ihrGUtdpkUeE7B6JAdm+ob7/ZBeEQHUHFktQF4eEgVY2k4+NRuPpRV36gd16Kiy9yODTf/oB0o+RftwUX7SBttSI5M/r6JlDTC6Gffv2RRs1nzeKCND9RT8oGtciNxK17Ekw6D99H9ywoHuSFrmRq5MaMPSf3EPkiqIJEzRozSHxCQQmxwxWUup9kk2KJtB00LKyMmEGEt1/NBOJ7q+A/aM4gu3fQNtH9ynZPrKf8fSIDJkgBKDRj45+VPSiHxkZavrB0cKiACA6l4AEfHAEg7pIsbbItm3bhvfeey+QhRD/u7c+vu+++0AvDolNgH6gEyZMQElJidDbpB8a3WN0f9KPlKZOU6OFXJ20xoUWXNIaBw5ji0BjYxMef/zxQQt99tlnY/78+YMeC/UleUvoRbaO7jFqrJIdDNg+EoXBbN9QuZ5C5TPw/ZALQiAh+k9KF0+1Kykpg043uKLb7W04fKgOs2Ydj+Li0uBs8vsEJuDzATU1rcJr8GLqUVQ0RXgNfpy/TVQC//73KsFelIwv71dEp9OBQ4ekeRGoR0qNEnqN5BBXQYg3iPz8IphMg29n3NZWh8OH1mPq1Bk48cTF8c4ap8cEmMAII/DWWy9Dq9Vh/PiJ/XLW2dkuWRD6RTiCP4h+QM4ILgtnjQkwASbABCQQYEGQAI8vZQJMgAkkEgEWhESqTS4LE2ACTEACARYECfD4UibABJhAIhFgQUik2uSyMAEmwAQkEGBBkACPL2UCTIAJJBKBUTvt1ON24Rc/vzpsXXz26fNhj/NBJsAEmEAwgY6ORrz7zqPBX/W+X/3uU6BXIodRKQiLFy8WloWHqhh6YMr27dtRVjZVeGZCqPPoe4uFn8Mcjg8fYwJjhUB5+dx+20kEym2327BvXwXKy8uFPdoC34f7T9vtjMYg6ZnKI7XA9Ci8m266Cffc8zDy8gpHajY5X0yACYwCAjU1lXjwwbuELS2WL18+CnIcexZ5DCF2dnwlE2ACTCChCLAgJFR1cmGYABNgArETYEGInR1fyQSYABNIKAIsCAlVnVwYJsAEmEDsBFgQYmfHVzIBJsAEEooAC0JCVScXhgkwASYQOwEWhNjZ8ZVMgAkwgYQiwIKQUNXJhWECTIAJxE5gVK5Ujr240q80GDTweLqfxyw9tsSLQaFQwu9Xwu32Jl7huERMIMEJsCCIrOC0NDUKCopEXjV2Tnc6nTh4sI4FYexUOZc0gQiwIIisTJvNimnTpom8auyc3tDQgD17KgEoxk6huaRMIEEIsCCIrEi/3z/oBlgio0nY0/v4sCAkbCVzwRKWAA8qJ2zVcsGYABNgAuIIcA9BHC/hbGoFcxicALMZnAt/ywRGAwEWBJG15POxyygcsj6XUbiz+BgTYAIjkQALguha8cPn84m+aqxcwD2EsVLTXM5EJMBjCENZqx4rvl71EK6/5VHsre+SLSVnwza8u34fnO4g11XnQfxz7TbYncM7/58FQbZq5oiYQNwJsCCIRB5wiUT33wtbawNqahrhcHmF2UnRXdftlhr03JbdeOz+u/CXtdvh8vm647TX4o1f/RxPv7YOTm/Pdz2zoQaNIw7HRGLl05kAExgBBNhlJLISAgY2qstovKHnRFHXhYvc54fVB7jQJxrweeD2e0GOLNnSCZeHMMcofQ5MgAmMTgIsCDHUW/RGz49uRfDD21mLzR9txZZ9bVBnFGD63HmYUpgOHfXRfC4crfgKX+5y4bglC1BgMfQs6/Kiae8mfLyxEeVLz8YEXSu+Wv0mNu+tRV39Gjz39FHMOP0SpBx4HR9tP4Q6pwLPP+PFpEXfxdnlGULJnM1HsHnrVuzfexROgwWFk8sxp7wUFqOmOw1vFw5sXI8DimKcWm7Cjo0bsauyER5DNibNPh7HTciCRsVrCmK4TfgSJjDqCLAgiKwyUS1wcs3AD1vzLrz2p19iR7MfqQYVmmoPw5s6D1f+5FZccnwBVF4nDn/5Nv7893bcOX068tP0Pblyo3bzavxpxVZcN38xirPbsX/7DtQ1WdFl34/N/3VCOfkMFFZsxeH6VnT6jmDz1xrYi87EWdNT0bT7c/zlz09j7S47CrMzoPK2o2HVP1CwaBl+dvOFKDRoAFc7tq1+Cf9sykWFsQobWoxIVnWhan8lHMbxuPLeB/HDheOiptQtltxLiBoYn8gERhABFgSRlSFaEPxA244v8VnxrVjxwGUoMetgq/4GLzz4Bzz+wN8x9bU7Ua7q9vtTVvrH3+dygt8PbXIhLrruJlTU34/NOcvwy5vORkqKGZppP0Hz4V/jpa7j8YtfLYM51QJnwx688udH8K8DE3H/wzfi+Pw0KL1W7P34Rdz3+IO4x1KEf1wzjxKkP+x47y34bvg1HvjJCTDplLAd/BQP3f0Qnv/bx7joxMuQGiWn7vxHeTKfxgSYwIgiwIPKMVRHwGhH85+srS5jCX580+WYW5KLDEs6CmcswZVXL4Ky8h94Z4OjRwT6xKAv3h6hIM+Tzw8oVEhKSYFeq4ZKn4zU1FSY9Crok80w6jVQ6wwwp6bBbPCiquJTfPxxF87/wQ9wevl4ZKanIT2rAAsuuRw3zMzFlw++jC8dfeMQXvXJWHbVEhTnZiE9PQMF8xbgzIICNH60F4dEDkLHgJQvYQJMYAQQYEEQWQl9xrrPmIb9DkDGtGJMSTNB0WtYFcgpLEeySYl1Ow92C0Jg+Ln3nED8lMHA++7/wsDEYOeRcND3HjdaDlfDmjYRsydmQa0Iul5ZgLmnT4DK+w427+6ZkQTAMqsAJVpVbw/F709Bxtw0qAyKnl5EUBzHpN3/mEikfDoTYAIjhAALgsiKEDWJRjDQgMlshEbb3zun0xuhUqlha23tlwPyvvf3wPf/FHyw70jfOyEyrxc2ayucqUnIMOgwsJKTUixQKDrhcNCahe5r9ZZkpCn7Dx4HYg3875fRMB9IlDgwASYw+gj0t1KjL//DkGMRK5UFw+iHrcsOt8sNn0/Tm1+3ww6v14vUtGT4hBY3Heppaft8whTS7s/dNpuMrLBCesC5vd91Xw0/XatWQKc3QdvZjlaHE16fL2gzah862lrh8xuh0yuFtLs1wS+871uF3aNmlF5vfnqzH/INi0FINHyACYx4AgMbjyM+w8OdQcElE8Fl0ndOt0um9UgtjnRYeww/GX0vqg9VoMtqxNypxfArlEg2pcLYZkerw9V3nteKxn1NsLV54UePe4fSJuMvGOoBrppAvpQqmAtyYWw+gK37G+DyBp3nqcOO9QfhVZyE0pye74W5UEHnCPEERGmwsY2B5/Z9JkFhURjuu5TTZwKxEWBBiI1b1FeR8W7btRYvvLkJTnf3amVn3U68++KHcBadj8uOMwIKNZLyMqHW7sYXX1fD5SGj6kHTnq/w2pefocrbf+8kcuy0trbC66P4erKiABytVrQJK5W1KJhyIubNtuOVv76GXW32bpHxuXB43Wr8Zd0OlP7wSpxs6el9kMQE4om6ZHwiE2ACiUaAXUYiazTQ+o/qsh5rPWH+LJjWP4ELt63G9Hwd6nZvwlHPNPzovsuQq6GBXCC3bAFOW/wJnvnDclz22fGYku3H4d1tyJ+0BKU0zhDYZdWQgrmFJVjz8ku4E3uw4MLb8P0FJoyfNB6ad9/GPXc3YP4ZV+DH503FshtuxpFHVuKa7+zAgjll0NpqsHPnIegXLMdvrpkHTU+PIiAGNJOpr3Xf4zIKuLGiKnB3byLKU/k0JsAERhgBFoQYKqTPaEa6WI2sSfNwWvISnLYwF1s+eR+bdjVj5rnLceu3FmF6SQaUgsEFVJYJ+J9b70fpnDVYt/EAHKkFuOzO0zE/txNv5FSgNKV7BhC06Tjxsqtwa+o72LCvBV63HX6/BVPPvRy3KFLx8Y4qwOWFza/CuNnn46Hfl+E/n32Grd8cgj1rBpad+yMsOmkGckzabuOvNKBw7ik4w1oAGvfuK5sKmVNOxsUXp8NCwhGpqD3HRQlmlHHyaUyACcSHgMLfZwHik2IcUnniiSdw00034Z57HkZeXqGsKarV7Vi6dKmscSZSZE1NTfjii83w+QKrrROpdFyWsUigpqYSDxX7z/wAACAASURBVD54Fx5//HEsX748oRFwD0Fk9XILODywBGxfhC8wH2UCCUSABSGGymSjFxpaN5toHUyh4+EjTIAJxJ8AC4JI5txDCA+sm0/4c/goE2ACI5MAC4LIemFBCA+Mewjh+fBRJjCSCbAgxFA73UYvhgvHwCXMZgxUMhcxYQmwIIisWu4hhAfWzSf8OXyUCTCBkUkgroJgt9vR0dGBrq4uOBwOuFyu7v15ACgUCmg0Guh0OiQlJcFkMgn/lcqRtZiaBSH8jRzgo+i/T174i/goE0hwAm63W7B9VqsVZAfJ9tFeZvR7Cdg+vV4Po9Eo2L7k5GTh+3hjGVJBoAI7nU60tbUJLwIRKhAYOpdeJBpHjx6FVquF2WyGxWIBwVKpVMMCKTjPqalZWL36g+Cv+H0QAbVaA4PBBIeDZxoFYeG3Y4wA7enl8XgEW0bbzJAQ9G0c2R9GsO1rb28XbB81jsn2paWlCSIRL9s3JIJABSQABILEgNQxlkAq2tjYCFrsRA+DITgpKSmCMMQSnxzXtLf7oFCkyRFVQsbh9QJeL4tBQlYuFyoiAbJ95P0gu0f2L1wjOFxkZDPJ7lEc5C2hRjH9V6uHxGT3ZkX22Kkgzc3NwovAyBEIckBlSRQyMzOFHoMccXMcTIAJMAE5CFAPoKWlRbB9NpstZI9ATFrkZSFxITc7uZGys7MFV7qYOMScK6sgEITq6moh86G6R2IyN/DcgGp2dnYiPz9f6C0MPIc/MwEmwATiTYAarbW1tYIYkKtI7kC2jxrF1MjOyckRvCVyp0HxyTZiSwp25MgRkLEeCjEIFJ7ipm7YgQMHBECB7/k/E2ACTGA4CJAAkD1qaGgQxg2GMg9k+6qqqgRXOomQ3EGWHkKgZ0D/4xVIGKg3QoHGF2ikngMTYAJMIJ4EqOVeWVkJGgyOV6A0qTdCMzBpbEFO2ye5h0ADv5Q5GkSOd6C0aTYS9UqGQi3jXR5OjwkwgdFDgHoGdXV1wkyieOea0ia7S7ZPziBZEOrr6+OqjgMLT12oeHTVBqbLn5kAExi7BMhDQZNnaBB5KF3k4QhTg5jcR+SulytIEgQa/SYowx1IJUdCPoabA6fPBJhAfAiQe5waw0MxgCymBDTITK5zufIR8xgCZYAyQtOiBg1eL1wOO1wxjHuoVHoYDNFnjRSauk/kT6PFbByYABNgAkNJgFxF5MsfCYHEiXoqWVlZkrMTvdUdkBRlIBQQn7sD6577OX7/4mZYtWqIG+71Q2FMx1nX3ofrls6AKco+DI0h0HhCUVHRgJzyRybABJiAfATIMzIUg8g+rwcejxd+hVLYxkcZpeGkBjHZY1q0Szs6SAkxCQIJAUEJ5TtzO/Zg/fuHUHbeNTjrhCLoROTQ73Vj69rnsOmLz1CzcDomp0epCIDgNqKFGxyYABNgAkNBgGweuYpkDR4bKvdsR8Xug6htaYdLY0JOVh7GT5mJKSVpiMZIk+uIXOe0F5yUWUfRpHVM2WkQg/YcChl8HijsyZgwYz5OOWUixDhx/B4nvHtW4ZPdnbC7qEsmRk7AaxNCVgofYAJMQCoBmk0p5yAubLX49LUX8cp7H2PL/ka4ejKoNJbi0tt/hbIoBYFc9yQINAWf9kGKNYgWBHLNkM8qlLso1owErlMo1Rg//2JcUZaG3GRx2aO8EZRQPZdAGvyfCTABJhALAfKMyDbF3deOTW88g0dfeA/V1sDqZiNKFy7F9y89B7Mmi/OukFDRzKO4CgINJlP3RDQUnwc1m9/F6+99haqOML0LAH6fFz6/Auvefx203kypysOCCy/COccXR+wvEBDKHwcmwASYgJwEyPbJ2Tvo3Lcez727vlcMdOklOO/q2/H9s+Yg26RFtGMIgTKS7aNp+LSFdqxuI3FNcECY3kQJiw22Ix/gobsewS6VGXpNlKMlPYn4/TuwdedGNN36IK5aXBLWp0a9g7DuLLEZ5/OZABNgAoDQ0Aw5q1I0IQeq9+xGc2PfCmdzbgFOmDcTOSlinOz9EybvjZTVy6IFgYDE4i5q3bUReyyTcPN9K3B6mbF/KSJ88roq8fzt96NydwM6F5cg3ObTJAixCFaELPBhJsAExjgBamjKKQjWQ+1wtfvCUvW5HWiqb4UmzYLUJF3EGZsxeW+CciBaEMhVFMsiCI/LCiiUUOsNMBgMQVmI/NarMkGni65XQYIQS/4i54LPYAJMYCwToIawfOOTamhSdVCRXXN2L9aytTRg+/Y9mJ49DRlGDVxth/Dpe+/gsz0qnHXFd7GgNLIgkGiJducHVapoQSAg8kEJyolMbwnGSM6fTMXkaJgAE4gzAeodSDG2/bNrQO7UEiRnGIGa7n3guuoO4l9P/xZ7t52K8+bnYtt7b+KjLfthmnspLktOjmpraqmNYdGC0L9Q/IkJMAEmMDYIUENTFkHw2LH7q42otWdj8fh87KvdDbcf8HtdaK87iA1vV2Hrhyq47A4guRinLTgJBRnRLTiTmsfoV32NjTrnUjIBJsAEho6A14kjX6zCip/fh6fe34Wpy5bh3KlZ0Gv6TDEtzrXZHFAYs3D8mVfgkrPmwqQauiwFx8w9hGAa/J4JMAEmEIIAPX+ApnPG3EtwtWP/Z6/gwYefxbZWH/Cff+HPhu/h+h/dhvx1H2Pj7hq0W+3wqvRIMadh2pLLsWzp8cgUsTY3kMcQRYj4tWhBoATpNVL99FRhKlWc5DQiXj6BCTCBRCFAdiVmQXC2YOv7L+GPK1/CdhIDCv5WbF/9Ah6svxy/+NW9uMjfhKPN7fCok5GdW4BMk/gVx2q1aJPer3pEX01AKNGROrWTxIoFoV8d8wcmwARkIEArgGNqDLvasOW9l/D4c69jR3P/NVxKYyFOOO0E5KfoYTYUwTxOWkal7mXU57iKMh9kbKUsjY4ymZhPowrjLbBjxscXMgEmEIIAGVvRjU0aQP74Zfzp6Zexvc6K4KcBKA2luPjmO7H8gtnINMjj1aDdTqnRHmsQ3UOg3gEZ3HBLuJWaLJiKWvD2yv/FV2+aoFlwLX4WbjVZrLkf5DqqMKo4DkyACTABOQmQsRUlCD4XKr98GSt+/3z3mEFvZhTQJBfjnB/egmuXzoZJG7sB742y542UbSsoCtE9BBKESCqk0RfivGt+iBOnZEGv1iLfFD8DTb0XqXuCD4TMn5kAE2ACZPuSkpKiA+HqwMH//A2//u3zaLBMwdTScTD0bNmjSynBmf9zI67+zglI18snBtRQp0W/ce0hUGKkQmR4Q44jKDUonP9t3D33Ang8PkCpRd270XGUchblzWQyCX4+KfHwtUyACTCBwQjQ9tJNTU0RZhp50LDlTTyw4nlUuCz4zpV34HTlGvzmj6/isK0AZ15xE67+7kLkGkW3xwfLUu93JFZS3eWiXUaUOiVMbpmQgiBkkWb7aBDvCT9paXHyTfVWQ2xv3E07sfqTz9Bkn4kLrzwR6aGisVZi9dq1qG1Jx+mXXYAicbt+9Mbq7jqAdS+9DfvkE3DS8SeA9s/qqvwcq9YcwOTjTsO8mfkRd5LtjYzfMIExSiA5OVmwf/RchNDBi/p9W7CrzQOvoh1fvPZnHFDUo8k3Hhcuvw3XnD8HWQZ5xYBcWdQYpl6MlBBTrqh3QEpJA7jRBo0+FfB54bZ1P2CCxiCifVm7WmG3h98EivKRnp4+atxFXnsT9u3ejG07amAPB9HdgQN7t2Hrtn3okPAIV6+rDZVbN+FAdS2cPY/BdndUYeu27ahq6ESIJ2OHyxkfYwJjjgDZvHHjIk0F0mLSKRfj9Dw9aHO6Izu+wn/3q3H6dbdh+UXyiwFVArnJSRCkuIsonpjlhLZYbWhoiHqr6fSZp2Ce/WM8/KPz8WDwUHtUt5QSpoLJuGpuPswhzqeKys3NDXGUv2YCTIAJyEPAbDYLDWJ6WM7gQQFtwSn45cqHobjlfnzWmonFy27C9efPRYqMA8iBtMn2kT2WY+w0ZkGgrkl+fj4OHz4c1ZawuuyTcevvfoUZX+xEfZe4pq5CmYnyRYuwcFrOoKPgATEYydNhA5XH/5kAExj9BOjZ7eThCPsogOwTce/Tq3BNhx/p47JgiNnahudFY7okCHIESVkkt1FGRkZ0D51WqpA5+RR8b/IpcuS7XxwpKSmCu6jfl2Pkg9fWiMojB1HT0Ay7W42U7EKMLy5BpqSZXX64u5pRW30INTX1sPmAJEse8gtKMS49BUHbrowRylxMJtCfABlhEoW6urqw2+1rUjKRn9L/Wjk/Ua+goKBA8thBIE+SBIEiycrKEp4k1N7e9+SfQOTx+E/TrCgPouYHxyNjcUjDWr0Oa976GLsajqKprRMujxLGtCzkFYzHgiXfw9zSdIhe7uL3or12Cz79eA12HqpCc1MrHH7AkJyBjNxJmHPyUpxaXgitSr7pcnFAxUkwAVkJkFeCxixpYg3NOhqOrXxoRlFhYaEw61OuwkkWBMoU+e5pr/DwI+9yZbkvHko7JycHNPIvdTClL9bR8c7b/DXeeP4lbG93YdqSK3HpzAkwafxor/oc/37tHbxj80B7yVWYlWcSVSBX536sefUZfFmfgvJTLsGy2RNBiyhbjmzAB2vexwcvN8JvvAVnTBwds7lEFZ5PZgIiCJDbnAaYSRRCjyeIiFDEqZR2Xl6eYPtEXBbxVMmCQClQ94m6LZWVlWFXMEfMjYgTqEdAYxijZZppqKJ5bW/ioeVvhjrc+71Cnd/7Hv5O7Fr3HrY2d6Bwye245JzZSO45mpl1Ka7SAX9+9gts3rwHJdnHwRx1LftRs+kVfFqpxpzTLsFFp82DuefxrplZS2E2AC+++hY+evdTzC27EOncSeirE343JgnQuGVRUZGwLqGjoyPC+gR5EFGa1Agn2yd3QzhqUxGpKCQK1H2pqakRREG+Z4/2T5m6arQGgsSAxg5Ge1AoM5BXkhF6DYCnC7V1dXAEzQv1d9Rix/5WeBUzcdqiPjEIsEguWYjppWuwtXYX2jrLYU6LdqV4Cw5uOYCkzAmYWj6lVwy649Vi3IR5mJn7DVZXrMfuuvOxMCf6aceBvPF/JpBoBKi1XlpaKti+lpaW8APNEgtPdpZ6JUPVEJZNEKiclNni4mIQFPKr0QOf5QykjDSaTgPZckyxkjNvscal1C3E95ZfjKD2f/+oWiqw8q8vYP/Rvq/dXa2od9nhV7iw97/voqHvkPDO57ajzqFEl6MDVocT/tBy0/9KVz1qD/mQPGEcslIDfY6gU/RpyMlOgXrXFtQ224CcQc4JOp3fMoGxQoBa6tRqJ7vU3NwMm80m67gC2T5aZ0DjpVFvnxEDfFkFgdKnjAcy3draCnqFnZoVRaYJNikivQhKQg0gK2j3WC1C7nyuVUM5YPdCv88Dv98Hn3sHPn5zR0iC+hwP3N6grkXIM3sOOLpghRIaTSZ0g94ZauhMaihUgNMjIt5I6fJxJpAABAIDzTSmSWMKZPtIGKQEsnXkCQnYPuqNDGUYktjJgBMUmgFErfkAHLs97JrcY8pJg8a0CIRG8wNbz8rtMzsm0dHwBa0QJ8Zll+DqS09AKMeZQm2A2ZyCqF39yWmwwING52F0OanLNxCGA13VDvjcfpiNMe6hMTBK/swEEogA2SfqJVCjmLwZNK5AwkATbsTMRKKGNU3rJyEgO0rCEA/bNySCEKhfKgQVhl40G4gEgQDRgg6n0ymMzgcgUWEJAhl+6hIF9gwh1eXQn4AuOR25OgMOH66B05iDbNNAk++D1+OBDyqoxWwmpcxC3gwdNtW34WhzCyakWfqJib+9AfvbW+FWTkZues9oc/+s8ScmwARoG+me57JQg5he5CXp7OwUhIHsINm/wDhrsO0jtzt5QYZr5uSQCsLAOyMgDgO/588iCaTkY+70Ymyp3ICP1s5F1pJZSDcZoKLnvXrsaKjcgA/+9Tqac8/Fd89ajLxUfZQJpGD87HnQvroFWzZ8ifzUU1GUngRacuC2N2HPlk9RUdeCzDlLMTHkbnxRJsWnMYExRIAau9RjkGtF8VChi6sgDFUhxl68SShZsBSLqxrw4Wd/x6rWvZhUlAW9SgmvrR67Nq9HlbsQi06aBIspWjHoppg1/XyceaAJa7e9hzfttSgvyYNOBVgb92Hbzl3wZczD0iVzIW51w9irIS4xExiNBFgQRmOtUZfUNB4nX3wVzIUbsLViOz5572N0OdxISi9C8YRFuGD2iZheVigsKhNTRLUhB8ef/X2Ycr7EN5v/i0/e/g+6/Aqk501F2dwLMWvWcZiUG+VDQsQkzOcyASYw7ARYEIapCnTjjsMPbiiD25uEjHB5SJmAy394F1xuDdIGzPLUpZXiuG/lYcr8M2FzOOH1+aDSGKA3JCPJqBdcPYGodSlTccG9D8NrTIG5Z1mCacK5+Nndi2E0paGvH6GE3lyAWQuzMHHmYtjsTmFrbI0+CUZjMvRaDZQDhywCifB/JsAERjUBFoRhqj6FJgkZmVG0tFV6pGfkhMylQq1HspleIU8RDihUBqTm9F/toNKbkZMz2IUKKCneVHqFj5ePMgEmkDgEeApP4tQll4QJMAEmIIkAC4IkfHwxE2ACTCBxCLAgJE5dckmYABNgApIIsCBIwscXMwEmwAQShwALQuLUJZeECTABJiCJAAuCJHx8MRNgAkwgcQiwICROXXJJmAATYAKSCLAgSMLHFzMBJsAEEocAC0Li1CWXhAkwASYgiQALgiR8fDETYAJMIHEIsCAkTl1ySZgAE2ACkgiwIEjCxxczASbABBKHAAtC4tQll4QJMAEmIIkAC4IkfHwxE2ACTCBxCLAgJE5dckmYABNgApIIsCBIwscXMwEmwAQShwALQuLUJZeECTABJiCJAAuCJHx8MRNgAkwgcQiwICROXXJJmAATYAKSCLAgSMLHFzMBJsAEEocAC0Li1CWXhAkwASYgiQALgiR8fDETYAJMIHEIsCAkTl1ySZgAE2ACkgiwIEjCxxczASbABBKHAAtC4tQll4QJMAEmIIkAC4IkfHwxE2ACTCBxCLAgJE5dckmYABNgApIIsCBIwscXMwEmwAQShwALQuLUJZeECTABJiCJAAuCJHx8MRNgAkwgcQiwICROXXJJmAATYAKSCLAgSMLHFzMBJsAEEocAC0Li1CWXhAkwASYgiQALgiR8fDETYAJMIHEIsCAkTl1ySZgAE2ACkgioJV09TBc3NDTA4/GETL29vV04ZrV2oL29NeR5dMBgMEKr1YU9hw8yASaQ+ARC2QqyIxTIrtTW1kYFIiMjA1qtNqpzR9JJCr/f7x9JGYomL9OmTUNFRUU0p0Y85/LLr8WJJy6OeB6fwASYQGITuPnmZfD5fLIU8tNPP8Upp5wiS1zxjGRU9hAIkFKpwsmnnDsoq9qaGuzbvx9FheOh1Q3e+nc4rKiq3DHo9fwlE2ACY5OATpeEwqLyfoV3OZ04UnkQZRMmIDcvr9+xgR/q66uxe9c3A78eNZ9HryCoVPjWty4YFPRXX32F/QcaUVQ8GyaTedBz2trqWBAGJcNfMoGxS0CnM2LixAX9AHR2tqOyqhllE4/D/Pnz+x0b+GHr1i9HtSDwoPLAGuXPTIAJMIExSoAFYYxWPBebCTABJjCQAAvCQCL8mQkwASYwRgmM2jGEaOqrquoQtFr9oKc6HN1TU3fu3ILOzu5pZYOeyF8yASYwJgjQhEuny4n9+3f3K6/L5ej3OZE/JLQgHD58IEzduYRjW7duAr04MAEmwAScDgf27t05ZkHEVRAcDgc6Oztht9tB791uNwLLIBQKBdRqtbCYw2g0Ijk5GQaDAUqleK/WzJkzMXHixLCVWldXiZdXPYbf/va3uPTSS8OeyweZABNIfAJlZWWwWDKw7H9uGbSwZI9iDWTrrFYrbDabYP/os9fr7Y1Oo9H0s31kA8kmxjsMqSCQsaeCt7a2oqWlRYARTQHpXAo6nQ5paWmgVX8ELFpxoOvoFS50dXWvYKa4S0pKwp3Kx5gAExgjBFQqFVJTUyWXlmwfGXxqADc1NQliECwAAxNwOp3CVwHbR/bOYrEIL71eH7XtGxiv2M9DJgikhG1tbQIMEoVYAkGqq6tDfX090tPTBThJSUmxRMXXMAEmwATiRoAawfv27UNXV1dMaZLNJLtHYkICRfaPeg0kWEMZZBcE2mOIhKCxsTHqHkGkApLaEpiOjg6htxBOaSPFxceZABNgAkNBINAroLjJXsUqBsF5I1vX3Nws9DRIGMijIcV1FRz3YO9lFQQaGzh69KhguIfCaLtcLqHHEGuPYzAA/B0TYAJMQA4CJAB2m02OqI6Jg2wfbepJnpdx48bBbB58B4ZjLhT5hWyCQGJQVVUl+MpIKYcq0OZTQvw0RczpjDhWMFT54HiZABNgAkSA7BHthEoTZYaiIRxMmQamyc5SOjS+KvfAsyyCQCCqq6uFbk1w5of6PVUCKWWkAeShzgfHH5kA/WiCGwoDP0eOIfHPoB934Ac+8H/il350lpAaqOTKpgZxvAI1hMne0iQbOQbAg/MtWRDIfUN7hBOUeAdSSRrFpx/PaNx7PN68hiM96upSg4FaNsHTjYe6JTUcZZUjzcDUa5pZQr5imn5NDR6adcJhZBGgRg25iej+jncgu0s9Bbov5JxoI1kQaPCYRtSHKxAYqhT6IUU7LXW48jrW0iWxppkS9F+ufeYTnSFNyqAX+Yop0KwS6gVnZ2cLs0wSvfyjpXwkBlRH9Aru+cYz/9TYqqysRHFxsWwDzeJXfQWVmHoFJAjDHagLNRwqPdzlHunpU8+R3HosBrHXFPWkqMFFs1Y4jBwCgYbocN/bJEjkPgr3BEkx1GLuIdCNKmdGxGSazvV6PXjllcd6L1MqlFCqotc3T4xrI3oT5DdhCVCriX40HKQTIJZy/eCl5yaxY2hqqsMTT9wXsZB+nx9eX99K48AF7mHY94jcsdRoyMzMDGQj5v8xCwKtqKOWeejgh9/jRFtzM9ptTviinHhkSM3DOIsOCvjhd9vR3ulFcmoy1Mq+Zdw0XkAvu+3YcQsxbiPy0ZKriUMcCDRuxz0/fwBrvtofNjGFqgCX3HE/fnzRbCRz1YRlxQflJUD2gBq6Xda2sBGTQIdzE9GYjwIuVG7ZgGr7sY/k1GdPx+zxKeizaGGTi3iQeilkj1NSUiRPsInpJ0etFVKk0N0lP+wttdi1swINNkCjUUVXeL8fCp0V6vnlSHPWC9dXNdugTivDvFklSDVqhXhefPHFQSHR4PL06dN5gHlQOiPkS4UJhROLkBJijFShzEZOuhEquX4tI6TYnI2RT4DGuiIFsnn79++PPKPy8Gqcu+zXqHcO6CUrjChf/L946OHTkR0pMRHHyWVO+aeGcmCGmojLe0+NSRBoEDdc78DntaHmwB60eJJRWFaILLMeymg2avJ54NNZkOa3ot3uhMvlBS1pcLXux9YdPkybUooMU7co9JZgwBsSKhqA4zAyCSjV03Hdw7/Dt8L0bpVqNdRDu0J/iOH44bS1o6mxAxpLNjJNOvg9brTU18JtsCAj1QRN9N7NIc4rRy+GANk+ctFEDD7gGP+FwowJC7+D6248QVYxoLxQI50EgSYgSJmRJloQqKtEAxnh/MM+Xysamj0wFxWgpCgPBhE/bl9nLXbtqIIvNQ/5E0vhrtiLJpsH1pZaHG3MQJopE6EyTXmjgW7ypYlxHUWsXD5BVgJqYfNBWaMcYZH5YO9oxIFdh2CcmoKMZB28bidqD+yCNWMaUlJYEEZYhUWdHdqWJ5y7KFxEGst0XHbjZVhQaAp3WszHSKxo5lFcBYGUiLonYaH43fD6VUjSasS19Kw12LxlF9p9SVB17IO3eCqmzpqE7Zt2wqo1wmQ2IZK2BOa900ZQHBKEgN+J6l1f4pP312L9pgOw6ZNRNv8MLD1rCcqLLFAP0tq2Vm7Eu2+twRfbK9DoNmN8+UKcvfQ8LCwbmiX/kUir6eHtcxfCp9JDH+kmjhQZHx8WAmT7yOjGGjwd2/DG3z/EzHu/i+LwmzHHlESw7YvVbRSqsR0yQzToEs5dFPLCCAf81lp8/fVOtKkLUWxpxL5DXeis2ArfjAVYcOocNFgzMS49hOM5KO5A/lgQgqCM4rc+exO+eOVR/O6Ftah1oNf1uGfnVqz+54e46v77ce1JBX1jVH4btr36CO545B20qZS95x/Y+TU+WPUPXPDTR3D7t8thkHmMImwDCYBCqYTOmCzUhEJBg5LdlXLsDzfcsVFckQmQdWoIkyiICgoNsrOLoFV3oLqmARWrV+BeH/DAfZegWC/vTUj3IHlvpGxpEZMghHMXiYJFJ/t9cHXUYffuA7Brx6HY3Ih9B9shTOjyu9Gwbx8ac+dgXEZ0MdOgDyklh5FJwO+3omrPDuyoPzZ/CrUOGePykZVq6DbwPjcqPnoBj/1tHdTlF+OBG6/CoilZULms2P3563jq2VX42/2/QOqf/4RLJiVB4bVj7+qncd8zH8FftBD3/PQOnD4nH8lKO6o2vYdHHnoSa56+H6lJK3D1mWUwDNKzODZXfd/4fV7YrZ1wK3VINuqhoplvfh+cnY04uH8fKhusoIzrU3MwLk2F4PklbrsVuzatE1xGM0sN2PP5V2hSZWPmSXORHdTOcbQfwMYvDsM0cRqmjc+BTl6b0VcYfieaANkVanBGFTRapBuSoZl2MpbffQum2TfgkUdX4pOttdj38UqsSAJuvnYpymSeQBHRexMh86IFgQxu1FAiJA744eyow/59R2CDEan6Nuw72NEtBlBAm5KJ8ZMnI1tEF5vyJ1rFI+aTT5CLgN+zHU/e+oNBo9OmFePyW3+Da8+dDOpRe711WP/WO2gfNxc3X/sDLJqcBcF2apMxddF3cKO9Fbc/+jr+8ewnWPzwUqS1HsCHH21Cm7cM1/3ml7hoSsA9ZEDBCRfjVw/YcMdtz+DLj9biV7EeIwAADLNJREFUW/NKMC1D3O3vdnRh3+Z1qNeU4vhZE2E2quC2N2Hfjh2ocxuQUzwBKQYFbG2tqK+qg92nQHefYEBxVRkoyUtCXWUbmhsdyM7te+53V20NbFojCk1maFkMBoAb3o8kCGRfogpZU/GTH94A/cIzcHwRjRmcjjtv9UP9xyfwwZY6fPP+X/FCRgpuW3Yaso3i7sNw6ZP3JlJvNdz1onMipyD4Oo9iz+6D6PLroFd1obaus1cMdCQGk6agOEPcWADBiLrSwpHhY0NCQKEqxXnXXoSJg1hKlS4FE6dk9U4a8LXsxZ6dChQtnoWpxZnQBBtIFY0jLMRM8xp8tPET7G5ZivKWWhxurYNp9tU4r1cM+oqROvV8nDbnBTxbdQA1DR2YkmGBmE6CWmtA/sQZyFClwKDtvtLWcAQ1VjXyJ03EpIJ0Yb2ML68LlXu2Ys+h0LNR0grzkXR4HzpaGuDILUS3JHSgps4GQ0oxzIFeUl/2+d0wE6CGcNTGVpeLUy//dlCOlciYfgbuuMuIpEdX4P1DemSkpUAbtL4q6OSY30ptDIsWhJhzOvBCaw22bKlAXYcbKo0K7V4PPN5ux6omKQ0lk6ehKCMJIhYfD0yBP49AAgplFhacdwkWD+oCVECpVPSOB/iOVuJrjxEnZhTBbDrWdCsysjFDY8Aa19do7/Cis7UF1nY7ck/MR6Bv0B+BCfnFRXDttsPaZYMP4gRBqdYgPaewX5StDU1QGLKRlkqD292KpVQbkJqeCUN1aEFAUiHyzHtwpKMV7V2F0NODABsrUedQIT0/A6ncPejHeSR8oIZm1IIwaIaVSCs7GTfck4GTD1gxZf5spMo8w0CUaA2Sx2N/ZYOcJPtXXbX479c7UO/PwbTJ2VC63b1ioFAbUVw+DxOykgadPSJ7XjjCuBNQKFXCpm20cVv/l7Lfohq/1w0bFFCqVFAOdqcqldAoaE17dzfZ5/PC5/MLCyFDFUql1tIG9hJ/2H2xu9w+YZqftqfH0H1ECY3aAG3Y5pYGuUXj4OnqhLVnp+Da6lp41Vqk0bTpviT4XUIRUMBSMBUnL5qPDKMGCrix77W78IP7XsORcBs/xInBsNx3TbV1aPFZMGt2GfKLpmJqaZbQdVIb0lA69yRMSLKjuakZNneU+13ECRYnE18CquxCnKBwoLW5Fp3WY+8FX3M9drjsUGkWIj1VDVOqBckpOtQcrMfgGxI7UHVoP7QmI1KSjRGnMEdVWhpXFh6SEtXZ/U5Sp+UgXWFHc2cn7K461DR5oDMVIFv6M977pcMf5CFAM8KOnRUmJW4vKteuxE/++B9UfPwkHv7Dq9jTbO/b5of2A3M64OrxnESTEq2/kpJH0YJAicmy6MvTjv3b9qPR7Ybbq4TenInS8tmYnKFCc2UFNu+qRGeXyCleNL1PrvxFQ5/PGVICyqxSlI134cjhzdhf3YZ+vwufAzVbv8bX1g6YJ89DYSqQbMlBTloWWjetw0fVxz7KsKt6Lb7Y5ITFkosMi6nXNSWlEEadBi6nAw5H8Mw2mnjhgifChBSNJg2ZmVp0tnSg/XAdWtwKpOTmgLxHHEYeAerNSjG2x5ZIAUN2KconZ8DnsgoDzX954W3sbbYJjQxbzVa8+8qb+KKiEQM2wDg2qp5vpO7NJloQSAwIjOTgcaCj/Sj2b9+JqnY/8iZMwfgMozA/29HZCc+xDcKokqQKkwolqoT4pCEnoFQX4vjzToL6yGa8/PLr+OpgizDpwOex48jmD/HXVz9AizsPS69ajBwVoLGUYPHxM5Hs/BrPP/RnrN1+FHYyyj4nGio+w8oHn8cWlxlzF5yK0nStLPk35+ZA42hDXUMjHD03rddlQ+PRGlgj/IoVag1SMrKg6qrHwdoGeNQW5GeLm0QhSyE4kqgI0D5BsjSGe1NTIrP8LNx5109w0bxseLoa8OXbf8OTz7+L3Xu/wP89vgJPPPtvfLW9LkSPtzei3jdx38uIxICWRoddi6BQQ6nwwe31CD/goGnWQsbNueMxKyW3u2ukUEJrMCElmeZ107Ru2lbWB7VGC9rTRmwI5E/sdXz+yCOgUGox84yrcVXtY3hu9So8sP1jWJK1gM8LW1sDGp2pOO2623DFvB6fuyYFMy74Pm7paMWKF97AI1Ub8VezAbQiwNHRhKoaN0684nZ879xymAbelFEU3+PowqGKzWjR5GNaWQGS9SokZRSjNKcdeyt3YVN7PSwmLRztzWhtt8GniNBwUqiQlJwKs7YStR1u6PNLkDkEK1ijKBqfEgUBMrZkX6TO5OmflBqWid/CDXfooPz9w3jjqzp89dZTqP5Si+baBjiUpf1Pj/CJdmyV0osRbXEJCIGhFXGhglKRDYtpOyrr6tCUlY68VH2/7rkmKRVZIfrFnqZdONDoh6HAAH0MK/lIwfkZy6FqZrR9r4A+fQIuuOVhTD9+NVa9/Dr+vaECOlMR5px+Oe743jmYW5IVtFGcAhpTPs740QrMX/QRnn/h//Dhpgq0a/Iw5/jzcO1Dl2PxJHPv6mWxNGjQ2tbZhnZNOrw909GVGhOKp8yGRrcbuw7X4VCjD1pTNvKK89BRczBiElqTCWlpKahvtyG3xCLPuEbEVPmEWAjQY03J/skfVEgvXYgbbr8TXQ8+hPe3NKKqqjuVQSdThMmAVEFQ+EXOo6LTjx49irq6ujAzNXzobDqIHdsPotXu6e5mBc8hD1UgvxdenxIGcxbKpkxDgaVvwU6oSwZ+T8+gnTBhwhBV3MDU+HMoAnSf7Ny5c0i2OQmVZiJ/T9sRjB8/PpGLOCrKduTIkaF5ep3fC2vVN/jbo49i1ed7e11ESk0pvnPTvfjR5TMQaUs8aqiXlJQIz+GOFaboHgJ1R2ifIPLTh3YbKWFKL8aMmQZUH22BwxPl6j4ASk0SxhUUITOWPj0Ak8nEYhDr3cDXMQEmEJYAbS/d3NwcpjEc9vKQB+11O/Dqsyvx5oZ9vWIQ8uQQB8gukyhICaIFgRKjhMktE1oQaLqPGkmWPEyy5EnJn6hrSayoJcWBCTABJjAUBKjBSW6ZcC7zWNK1NezCln0dMOcV9FtUqdDlIjNd371lS5iIyZVFeZOy9TVFH5MgkAqRUhKUkbRNBIkB+fk4MAEmwASGggAZ3nHjxuHgwcjjQ2LSN088A3c+MP/Y6aVKrbDqPdJcA2qgkyBIGVCm/MYkCHRheno6GhoaRpQg5ObmSgYiphL5XCbABMYeAWp40vOL6WFccgW1wYKC8ZaYoqOJNJQn6rlIDaLXIQQSpK5Jfn6+zPNyA7GL+0+qmJOTw7OLxGEb0rOpTqjRQGNNUlstQ5rRER45saPWH/XIOYwcAtRLGJoZR+LLSPcH/dbkCDH3EChxi8UiPMezqalJjrzEHAd1leixmRxGFgESaWq1tLe3C0/Zo/nb9JK6AdfIKqW8uQks/CRjQ40u4peamiq4A+RNiWOTQiApKUl4dnt9fb2MjwMQnyNy3xcWFkoeOwikLEkQKBJSStqDmx7wPByBxgyysrJ4dfJwwI8iTTJm1Lqle4QmIdCLBGEkjT1FUYy4nUJCEBADEgRq/XEYeQRIuDMyMoSHcbW0tAzL/Rzw0tBUe7mC6HUIgyVstVpRXV0t6Xmjg8Ub6TsCkpeXJ/jPqII4MAEmwATiSYAaOlVVVUIvOJ7pkiuWxkxJlOR0ycpiRUmhaDxBjkGNaKESBBIDcluxGERLjc9jAkxATgLUgysqKoqrS4/EgNyxNG4gpxgQF1l6CAHAXV1dqKysFPzFQ+USIAAEhPxm5I7gwASYABMYbgK0Mp9sX2tr65COKdCYAfUM5BpEHshNVkGgyOm5o42NjSC/mtwPuychIH80jRnQ4jgOTIAJMIGRQoAawWT7aCWz1IfdDywT2T6yeTRmS5NohirILgiUUVJLmlnS1tYm/Je6OyD1CmjeL/UI6EVwODABJsAERhoBEgW73S70FAKz66Tkkdzh5JKndQbUGKZx06EMQyIIgQyTEBAcAhMLHCp8QAhIHemz3D6zQF75PxNgAkxALgI0k448JAHbJ3ZXB2r0ku0jEaApruQqioftG1JBCMClHkNAOWl6Ko01UJeKpiAGxhqosGTwaZCGjD+pIoGgKXg8aBwgyf+ZABMYTQTI9tGLxIFsH83IpEYyfSbRoEC2jwSAptAHbB/ZP7J78bZ9cRGE0VSBnFcmwASYwFglIMu007EKj8vNBJgAE0gkAiwIiVSbXBYmwASYgAQCLAgS4PGlTIAJMIFEIsCCkEi1yWVhAkyACUggwIIgAR5fygSYABNIJAIsCIlUm1wWJsAEmIAEAiwIEuDxpUyACTCBRCLw/95si82pL7wlAAAAAElFTkSuQmCC;" vertex="1" parent="1">
          <mxGeometry x="90" y="51.5" width="254" height="156" as="geometry"/>
        </mxCell>
        <mxCell id="U2Ma9nkFuC7S6LuOiPo0-2" value="grab (parent)" style="text;html=1;fontStyle=2;labelBackgroundColor=#ffffff;fontColor=#FF8000;" vertex="1" parent="1">
          <mxGeometry x="50" y="26.5" width="100" height="30" as="geometry"/>
        </mxCell>
        <mxCell id="U2Ma9nkFuC7S6LuOiPo0-6" value="drag (position)" style="text;html=1;fontStyle=2;labelBackgroundColor=#ffffff;fontColor=#FF8000;" vertex="1" parent="1">
          <mxGeometry x="180" y="26.5" width="100" height="30" as="geometry"/>
        </mxCell>
        <mxCell id="U2Ma9nkFuC7S6LuOiPo0-7" value="remove" style="text;html=1;fontStyle=2;labelBackgroundColor=#ffffff;fontColor=#FF8000;" vertex="1" parent="1">
          <mxGeometry x="325" y="26.5" width="70" height="30" as="geometry"/>
        </mxCell>
        <mxCell id="U2Ma9nkFuC7S6LuOiPo0-8" value="inspect" style="text;html=1;fontStyle=2;labelBackgroundColor=#ffffff;fontColor=#FF8000;" vertex="1" parent="1">
          <mxGeometry x="344" y="91.5" width="60" height="30" as="geometry"/>
        </mxCell>
        <mxCell id="U2Ma9nkFuC7S6LuOiPo0-9" value="edit scripts (SHIFT)" style="text;html=1;fontStyle=2;labelBackgroundColor=#ffffff;fontColor=#FF8000;" vertex="1" parent="1">
          <mxGeometry x="345" y="129.5" width="130" height="30" as="geometry"/>
        </mxCell>
        <mxCell id="U2Ma9nkFuC7S6LuOiPo0-10" value="resize" style="text;html=1;fontStyle=2;labelBackgroundColor=#ffffff;fontColor=#FF8000;" vertex="1" parent="1">
          <mxGeometry x="335" y="192.5" width="50" height="30" as="geometry"/>
        </mxCell>
        <mxCell id="U2Ma9nkFuC7S6LuOiPo0-11" value="change id" style="text;html=1;fontStyle=2;labelBackgroundColor=#ffffff;fontColor=#FF8000;" vertex="1" parent="1">
          <mxGeometry x="165" y="201.5" width="80" height="30" as="geometry"/>
        </mxCell>
        <mxCell id="U2Ma9nkFuC7S6LuOiPo0-14" value="DRAG to desktop" style="text;html=1;fontStyle=2;labelBackgroundColor=#ffffff;fontColor=#FF8000;" vertex="1" parent="1">
          <mxGeometry x="210" y="221.5" width="70" height="50" as="geometry"/>
        </mxCell>
        <mxCell id="U2Ma9nkFuC7S6LuOiPo0-16" value="toggle edit" style="text;html=1;fontStyle=2;labelBackgroundColor=#ffffff;fontColor=#FF8000;" vertex="1" parent="1">
          <mxGeometry x="40" y="192.5" width="80" height="30" as="geometry"/>
        </mxCell>
        <mxCell id="U2Ma9nkFuC7S6LuOiPo0-25" value="duplicate" style="text;html=1;fontStyle=2;labelBackgroundColor=#ffffff;fontColor=#FF8000;" vertex="1" parent="1">
          <mxGeometry x="40" y="114.5" width="80" height="30" as="geometry"/>
        </mxCell>
      </root>
    </mxGraphModel>
  </diagram>
</mxfile>
